<?xml version='1.0' encoding='utf-8'?>
<!DOCTYPE svg PUBLIC '-//W3C//DTD SVG 1.1//EN' 'http://www.w3.org/Graphics/SVG/1.1/DTD/svg11.dtd'>
<svg version="1.1" xmlns="http://www.w3.org/2000/svg" viewBox="0 0 512 512" xmlns:xlink="http://www.w3.org/1999/xlink" enable-background="new 0 0 512 512">
  <g>
    <g>
      <path  fill="#999" d="m500.9,242.9c-2.7-92.7-81.9-122.9-105.7-124.5-5.3-27.1-43.9-107.4-138.7-107.4-88.5,0-136.2,78.4-138.6,107.2-88,17.3-106.9,91.5-106.9,124.7 0,69.6 56.7,126.2 126.4,126.2h237.2c69.7,0 128.4-56.7 126.3-126.2zm-126.3,85.2h-237.2c-47,0-85.3-38.2-85.3-85.2 0-46 37.4-84.2 83.4-85.2 10.1-0.2 18.5-7.7 19.9-17.7 6.9-50.2 50.4-88 101.2-88 50.8,0 94.3,37.8 101.2,88 1.4,9.9 9.7,17.4 19.7,17.7 46.3,1.5 82.6,38.9 82.6,85.2-0.2,47-38.5,85.2-85.5,85.2z"/>
      <path  fill="#999" d="m371.6,422.5c-11.3,0-20.4,9.1-20.4,20.4v37.7c0,11.3 9.1,20.4 20.4,20.4 11.3,0 20.4-9.1 20.4-20.4v-37.7c0-11.2-9.1-20.4-20.4-20.4z"/>
      <path  fill="#999" d="m141.4,422.5c-11.3,0-20.4,9.1-20.4,20.4v37.7c0,11.3 9.2,20.4 20.4,20.4 11.3,0 20.4-9.1 20.4-20.4v-37.7c0-11.2-9.1-20.4-20.4-20.4z"/>
      <path  fill="#999" d="m256.5,422.5c-11.3,0-20.4,9.1-20.4,20.4v37.7c0,11.3 9.2,20.4 20.4,20.4 11.3,0 20.4-9.1 20.4-20.4v-37.7c0-11.2-9.1-20.4-20.4-20.4z"/>
    </g>
  </g>
</svg>
